<mxfile host="app.diagrams.net" modified="2023-06-22T08:19:43.056Z" agent="Mozilla/5.0 (Windows NT 10.0; Win64; x64) AppleWebKit/537.36 (KHTML, like Gecko) Chrome/114.0.0.0 Safari/537.36" etag="NHlzwf8FFpff75xRqzPS" version="21.5.0">
  <diagram name="Seite-1" id="1HtBQeL7i40pgVE6pFqI">
    <mxGraphModel dx="819" dy="439" grid="1" gridSize="10" guides="1" tooltips="1" connect="1" arrows="1" fold="1" page="1" pageScale="1" pageWidth="827" pageHeight="1169" math="0" shadow="0">
      <root>
        <mxCell id="0" />
        <mxCell id="1" parent="0" />
        <mxCell id="yYtpETMoUV-8OG7KC9CJ-1" value="" style="rounded=0;whiteSpace=wrap;html=1;fillColor=none;movable=0;resizable=0;rotatable=0;deletable=0;editable=0;locked=1;connectable=0;" vertex="1" parent="1">
          <mxGeometry width="640" height="360" as="geometry" />
        </mxCell>
        <mxCell id="yYtpETMoUV-8OG7KC9CJ-2" value="XP" style="rounded=0;whiteSpace=wrap;html=1;fontSize=10;" vertex="1" parent="1">
          <mxGeometry x="160" y="330" width="320" height="10" as="geometry" />
        </mxCell>
        <mxCell id="yYtpETMoUV-8OG7KC9CJ-3" value="HP" style="rounded=0;whiteSpace=wrap;html=1;" vertex="1" parent="1">
          <mxGeometry x="160" y="300" width="320" height="20" as="geometry" />
        </mxCell>
        <mxCell id="yYtpETMoUV-8OG7KC9CJ-9" value="" style="group;fontSize=10;" vertex="1" connectable="0" parent="1">
          <mxGeometry x="20" y="180" width="40" height="160" as="geometry" />
        </mxCell>
        <mxCell id="yYtpETMoUV-8OG7KC9CJ-8" value="" style="rounded=0;whiteSpace=wrap;html=1;" vertex="1" parent="yYtpETMoUV-8OG7KC9CJ-9">
          <mxGeometry x="15" y="20" width="10" height="120" as="geometry" />
        </mxCell>
        <mxCell id="yYtpETMoUV-8OG7KC9CJ-5" value="Thrusters" style="ellipse;whiteSpace=wrap;html=1;aspect=fixed;fontSize=8;" vertex="1" parent="yYtpETMoUV-8OG7KC9CJ-9">
          <mxGeometry y="120" width="40" height="40" as="geometry" />
        </mxCell>
        <mxCell id="yYtpETMoUV-8OG7KC9CJ-6" value="Weapon" style="ellipse;whiteSpace=wrap;html=1;aspect=fixed;fontSize=8;" vertex="1" parent="yYtpETMoUV-8OG7KC9CJ-9">
          <mxGeometry y="60" width="40" height="40" as="geometry" />
        </mxCell>
        <mxCell id="yYtpETMoUV-8OG7KC9CJ-7" value="Shield" style="ellipse;whiteSpace=wrap;html=1;aspect=fixed;fontSize=8;" vertex="1" parent="yYtpETMoUV-8OG7KC9CJ-9">
          <mxGeometry width="40" height="40" as="geometry" />
        </mxCell>
        <mxCell id="yYtpETMoUV-8OG7KC9CJ-12" value="W1&lt;br&gt;CD" style="ellipse;whiteSpace=wrap;html=1;aspect=fixed;" vertex="1" parent="1">
          <mxGeometry x="580" y="300" width="40" height="40" as="geometry" />
        </mxCell>
        <mxCell id="yYtpETMoUV-8OG7KC9CJ-13" value="Dash&lt;br&gt;CD&lt;br&gt;" style="ellipse;whiteSpace=wrap;html=1;aspect=fixed;" vertex="1" parent="1">
          <mxGeometry x="520" y="300" width="40" height="40" as="geometry" />
        </mxCell>
        <mxCell id="yYtpETMoUV-8OG7KC9CJ-14" value="W3&lt;br&gt;CD" style="ellipse;whiteSpace=wrap;html=1;aspect=fixed;" vertex="1" parent="1">
          <mxGeometry x="580" y="240" width="40" height="40" as="geometry" />
        </mxCell>
        <mxCell id="yYtpETMoUV-8OG7KC9CJ-15" value="W2&lt;br&gt;CD" style="ellipse;whiteSpace=wrap;html=1;aspect=fixed;" vertex="1" parent="1">
          <mxGeometry x="520" y="240" width="40" height="40" as="geometry" />
        </mxCell>
        <mxCell id="yYtpETMoUV-8OG7KC9CJ-16" value="" style="rounded=0;whiteSpace=wrap;html=1;" vertex="1" parent="1">
          <mxGeometry x="160" y="10" width="320" height="10" as="geometry" />
        </mxCell>
        <mxCell id="yYtpETMoUV-8OG7KC9CJ-17" value="Boss Name" style="text;html=1;strokeColor=none;fillColor=none;align=center;verticalAlign=middle;whiteSpace=wrap;rounded=0;" vertex="1" parent="1">
          <mxGeometry x="160" y="20" width="320" height="20" as="geometry" />
        </mxCell>
        <mxCell id="yYtpETMoUV-8OG7KC9CJ-22" value="" style="group" vertex="1" connectable="0" parent="1">
          <mxGeometry x="520" y="80" width="100" height="60" as="geometry" />
        </mxCell>
        <mxCell id="yYtpETMoUV-8OG7KC9CJ-18" value="Wave X / 20" style="text;html=1;strokeColor=none;fillColor=none;align=center;verticalAlign=middle;whiteSpace=wrap;rounded=0;" vertex="1" parent="yYtpETMoUV-8OG7KC9CJ-22">
          <mxGeometry width="100" height="20" as="geometry" />
        </mxCell>
        <mxCell id="yYtpETMoUV-8OG7KC9CJ-19" value="# enemies killed" style="text;html=1;strokeColor=none;fillColor=none;align=center;verticalAlign=middle;whiteSpace=wrap;rounded=0;" vertex="1" parent="yYtpETMoUV-8OG7KC9CJ-22">
          <mxGeometry y="20" width="100" height="20" as="geometry" />
        </mxCell>
        <mxCell id="yYtpETMoUV-8OG7KC9CJ-20" value="# enemies left" style="text;html=1;strokeColor=none;fillColor=none;align=center;verticalAlign=middle;whiteSpace=wrap;rounded=0;" vertex="1" parent="yYtpETMoUV-8OG7KC9CJ-22">
          <mxGeometry y="40" width="100" height="20" as="geometry" />
        </mxCell>
        <mxCell id="yYtpETMoUV-8OG7KC9CJ-21" value="" style="endArrow=none;html=1;rounded=0;exitX=0;exitY=0;exitDx=0;exitDy=0;" edge="1" parent="yYtpETMoUV-8OG7KC9CJ-22" source="yYtpETMoUV-8OG7KC9CJ-19">
          <mxGeometry width="50" height="50" relative="1" as="geometry">
            <mxPoint x="-10" y="60" as="sourcePoint" />
            <mxPoint x="100" y="20" as="targetPoint" />
          </mxGeometry>
        </mxCell>
        <mxCell id="yYtpETMoUV-8OG7KC9CJ-23" value="SCORE" style="text;html=1;strokeColor=none;fillColor=none;align=center;verticalAlign=middle;whiteSpace=wrap;rounded=0;" vertex="1" parent="1">
          <mxGeometry x="520" y="20" width="100" height="20" as="geometry" />
        </mxCell>
        <mxCell id="yYtpETMoUV-8OG7KC9CJ-24" value="Multiplier" style="text;html=1;strokeColor=none;fillColor=none;align=center;verticalAlign=middle;whiteSpace=wrap;rounded=0;fontSize=9;" vertex="1" parent="1">
          <mxGeometry x="520" y="40" width="100" height="10" as="geometry" />
        </mxCell>
        <mxCell id="yYtpETMoUV-8OG7KC9CJ-25" value="Power&lt;br&gt;Up" style="ellipse;whiteSpace=wrap;html=1;aspect=fixed;" vertex="1" parent="1">
          <mxGeometry x="20" y="20" width="80" height="80" as="geometry" />
        </mxCell>
      </root>
    </mxGraphModel>
  </diagram>
</mxfile>
